<svg xmlns="http://www.w3.org/2000/svg" xmlns:xlink="http://www.w3.org/1999/xlink" fill="none" version="1.1" width="32" height="32" viewBox="0 0 32 32"><g style="mix-blend-mode:passthrough"><g><g style="mix-blend-mode:passthrough"><rect x="0" y="0" width="32" height="32" rx="0" fill="#07C160" fill-opacity="1"/></g><g style="mix-blend-mode:passthrough"><path d="M10.5,12.70929C10.5,13.849499999999999,11.09632,15.47828,11.83191,16.35014L12.19345,16.77864C12.78626,17.481299999999997,12.595379999999999,18.368499999999997,11.77445,18.7691L6.1141000000000005,21.5313C5.498151,21.831899999999997,5,22.6304,5,23.3155L5,24.0016C5,24.5558,5.448355,25,6.00143,25L22.9986,25C23.5491,25,24,24.553,24,24.0016L24,23.3155C24,22.6252,23.5012,21.831699999999998,22.8859,21.531599999999997L17.2255,18.7705C16.4012,18.3684,16.217,17.479,16.8066,16.78013L17.168100000000003,16.351570000000002C17.9009,15.48286,18.5,13.8493,18.5,12.71019L18.5,11.00021C18.5,8.79298,16.7091,7,14.5,7C12.295359999999999,7,10.5,8.79067,10.5,10.99958L10.5,12.70929ZM22.75,19L22.75,16.25L20,16.25L20,14.75L22.75,14.75L22.75,12L24.25,12L24.25,14.75L27,14.75L27,16.25L24.25,16.25L24.25,19L22.75,19Z" fill-rule="evenodd" fill="#FFFFFF" fill-opacity="1"/></g></g></g></svg>