<svg xmlns="http://www.w3.org/2000/svg" xmlns:xlink="http://www.w3.org/1999/xlink" fill="none" version="1.1" width="24" height="24" viewBox="0 0 24 24"><g style="mix-blend-mode:passthrough"><g><g style="mix-blend-mode:passthrough"><path d="M7.83191,12.35014C7.09632,11.47828,6.5,9.849499999999999,6.5,8.70929L6.5,6.99958C6.5,4.79067,8.295359999999999,3,10.5,3C12.7091,3,14.5,4.79298,14.5,7.00021L14.5,8.71019C14.5,9.8493,13.9009,11.48286,13.1681,12.35157L12.8066,12.78013C12.217,13.479,12.4012,14.3684,13.2255,14.7705L18.8859,17.531599999999997C19.5012,17.831699999999998,20,18.6252,20,19.3155L20,20.0016C20,20.553,19.5491,21,18.9986,21L2.00143,21C1.448355,21,1,20.5558,1,20.0016L1,19.3155C1,18.6304,1.498151,17.831899999999997,2.1141,17.5313L7.77445,14.7691C8.595379999999999,14.3685,8.78626,13.4813,8.19345,12.77864L7.83191,12.35014ZM18.8,19.8L18.8,19.3155C18.8,19.0861,18.5647,18.71,18.3598,18.6101L12.6995,15.849C11.1729,15.1044,10.79557,13.3029,11.8893,12.00638L12.2509,11.57782C12.8022,10.92428,13.3,9.5644,13.3,8.7102L13.3,7.00022C13.3,5.4549199999999995,12.0456,4.20001,10.5,4.20001C8.95631,4.20001,7.7,5.45521,7.7,6.9995899999999995L7.7,8.709299999999999C7.7,9.56567,8.19575,10.920490000000001,8.74908,11.57632L9.11061,12.00482C10.20664,13.3039,9.82521,15.1037,8.30072,15.8476L2.6403600000000003,18.6098C2.43701,18.709,2.2,19.0887,2.2,19.3155L2.2,19.8L18.8,19.8ZM18.9,8L18.9,10.899989999999999L16,10.899989999999999L16,12.09999L18.9,12.09999L18.9,15L20.1,15L20.1,12.09999L23,12.09999L23,10.899989999999999L20.1,10.899989999999999L20.1,8L18.9,8Z" fill-rule="evenodd" fill="#000000" fill-opacity="0.8999999761581421"/></g></g></g></svg>